<svg xmlns="http://www.w3.org/2000/svg" viewBox="0 0 1920 958"><defs><style>.cls-1{fill:#8eaad9;}.cls-2{fill:#2a4c9c;}</style></defs><title>background</title><g id="Layer_2" data-name="Layer 2"><g id="Layer_1-2" data-name="Layer 1"><g id="Layer_2-2" data-name="Layer 2"><path class="cls-1" d="M0,875s1165.32-55.74,1425.12-166.42c16.28-6.93,32.94,8.92,26.94,25.56a519.33,519.33,0,0,1-22.6,53.93c-11.09,22.48,11.7,46.68,34.75,36.83C1560.89,783.58,1700.27,694,1624,538c-112-229,296-397,296-397V958H0Z"/><path class="cls-2" d="M220.23,201.92c14.07,11.27,32.93,22.59,58.2,32.85,41.31,16.78,45.54,73.47,7.1,96C172.07,397.47,0,371,0,371V0H1920C1162.13,267.87,460.32,181.41,245.8,144.77,212.87,139.15,194.16,181,220.23,201.92Z"/></g></g></g></svg>